<?xml version="1.0" encoding="UTF-8" standalone="no"?>
<!DOCTYPE svg PUBLIC "-//W3C//DTD SVG 1.1//EN"
 "http://www.w3.org/Graphics/SVG/1.1/DTD/svg11.dtd">
<!-- Generated by graphviz version 8.0.3 (20230418.1244)
 -->
<!-- Title: snakemake_dag Pages: 1 -->
<svg width="734pt" height="476pt"
 viewBox="0.00 0.00 734.00 476.00" xmlns="http://www.w3.org/2000/svg" xmlns:xlink="http://www.w3.org/1999/xlink">
<g id="graph0" class="graph" transform="scale(1 1) rotate(0) translate(4 472)">
<title>snakemake_dag</title>
<polygon fill="white" stroke="none" points="-4,4 -4,-472 730,-472 730,4 -4,4"/>
<!-- 0 -->
<g id="node1" class="node">
<title>0</title>
<path fill="none" stroke="#56d8c9" stroke-width="2" d="M378,-36C378,-36 348,-36 348,-36 342,-36 336,-30 336,-24 336,-24 336,-12 336,-12 336,-6 342,0 348,0 348,0 378,0 378,0 384,0 390,-6 390,-12 390,-12 390,-24 390,-24 390,-30 384,-36 378,-36"/>
<text text-anchor="middle" x="363" y="-15.5" font-family="sans" font-size="10.00">all</text>
</g>
<!-- 1 -->
<g id="node2" class="node">
<title>1</title>
<path fill="none" stroke="#56d87b" stroke-width="2" d="M116,-108C116,-108 78,-108 78,-108 72,-108 66,-102 66,-96 66,-96 66,-84 66,-84 66,-78 72,-72 78,-72 78,-72 116,-72 116,-72 122,-72 128,-78 128,-84 128,-84 128,-96 128,-96 128,-102 122,-108 116,-108"/>
<text text-anchor="middle" x="97" y="-87.5" font-family="sans" font-size="10.00">check_db</text>
</g>
<!-- 1&#45;&gt;0 -->
<g id="edge1" class="edge">
<title>1&#45;&gt;0</title>
<path fill="none" stroke="grey" stroke-width="2" d="M128.82,-80.63C177.36,-67.85 269.83,-43.52 322.9,-29.55"/>
<polygon fill="grey" stroke="grey" stroke-width="2" points="324.39,-32.25 333.17,-26.32 322.61,-25.48 324.39,-32.25"/>
</g>
<!-- 2 -->
<g id="node3" class="node">
<title>2</title>
<path fill="none" stroke="#56a2d8" stroke-width="2" d="M94,-180C94,-180 12,-180 12,-180 6,-180 0,-174 0,-168 0,-168 0,-156 0,-156 0,-150 6,-144 12,-144 12,-144 94,-144 94,-144 100,-144 106,-150 106,-156 106,-156 106,-168 106,-168 106,-174 100,-180 94,-180"/>
<text text-anchor="middle" x="53" y="-165" font-family="sans" font-size="10.00">load_data_into_db</text>
<text text-anchor="middle" x="53" y="-154" font-family="sans" font-size="10.00">method: IEX</text>
</g>
<!-- 2&#45;&gt;1 -->
<g id="edge7" class="edge">
<title>2&#45;&gt;1</title>
<path fill="none" stroke="grey" stroke-width="2" d="M64.1,-143.34C68.6,-136.18 73.91,-127.73 78.94,-119.73"/>
<polygon fill="grey" stroke="grey" stroke-width="2" points="82.39,-121.23 84.75,-110.9 76.46,-117.51 82.39,-121.23"/>
</g>
<!-- 3 -->
<g id="node4" class="node">
<title>3</title>
<path fill="none" stroke="#c6d856" stroke-width="2" d="M441,-252C441,-252 285,-252 285,-252 279,-252 273,-246 273,-240 273,-240 273,-228 273,-228 273,-222 279,-216 285,-216 285,-216 441,-216 441,-216 447,-216 453,-222 453,-228 453,-228 453,-240 453,-240 453,-246 447,-252 441,-252"/>
<text text-anchor="middle" x="363" y="-231.5" font-family="sans" font-size="10.00">read_and_aplit_purification_excel</text>
</g>
<!-- 3&#45;&gt;2 -->
<g id="edge8" class="edge">
<title>3&#45;&gt;2</title>
<path fill="none" stroke="grey" stroke-width="2" d="M272.89,-215.03C228.94,-205.97 175.04,-194.4 119.07,-180.93"/>
<polygon fill="grey" stroke="grey" stroke-width="2" points="119.26,-176.89 108.72,-177.93 117.61,-183.69 119.26,-176.89"/>
</g>
<!-- 8 -->
<g id="node9" class="node">
<title>8</title>
<path fill="none" stroke="#56a2d8" stroke-width="2" d="M218,-180C218,-180 136,-180 136,-180 130,-180 124,-174 124,-168 124,-168 124,-156 124,-156 124,-150 130,-144 136,-144 136,-144 218,-144 218,-144 224,-144 230,-150 230,-156 230,-156 230,-168 230,-168 230,-174 224,-180 218,-180"/>
<text text-anchor="middle" x="177" y="-165" font-family="sans" font-size="10.00">load_data_into_db</text>
<text text-anchor="middle" x="177" y="-154" font-family="sans" font-size="10.00">method: IMAC</text>
</g>
<!-- 3&#45;&gt;8 -->
<g id="edge13" class="edge">
<title>3&#45;&gt;8</title>
<path fill="none" stroke="grey" stroke-width="2" d="M315.58,-215.15C291.63,-206.14 262.31,-195.11 236.82,-185.51"/>
<polygon fill="grey" stroke="grey" stroke-width="2" points="237.25,-182.18 226.65,-181.93 234.78,-188.73 237.25,-182.18"/>
</g>
<!-- 10 -->
<g id="node11" class="node">
<title>10</title>
<path fill="none" stroke="#56a2d8" stroke-width="2" d="M342,-180C342,-180 260,-180 260,-180 254,-180 248,-174 248,-168 248,-168 248,-156 248,-156 248,-150 254,-144 260,-144 260,-144 342,-144 342,-144 348,-144 354,-150 354,-156 354,-156 354,-168 354,-168 354,-174 348,-180 342,-180"/>
<text text-anchor="middle" x="301" y="-165" font-family="sans" font-size="10.00">load_data_into_db</text>
<text text-anchor="middle" x="301" y="-154" font-family="sans" font-size="10.00">method: Induction</text>
</g>
<!-- 3&#45;&gt;10 -->
<g id="edge15" class="edge">
<title>3&#45;&gt;10</title>
<path fill="none" stroke="grey" stroke-width="2" d="M347.35,-215.34C340.72,-207.85 332.84,-198.95 325.47,-190.63"/>
<polygon fill="grey" stroke="grey" stroke-width="2" points="328.11,-188.07 318.86,-182.9 322.87,-192.71 328.11,-188.07"/>
</g>
<!-- 12 -->
<g id="node13" class="node">
<title>12</title>
<path fill="none" stroke="#56a2d8" stroke-width="2" d="M466,-180C466,-180 384,-180 384,-180 378,-180 372,-174 372,-168 372,-168 372,-156 372,-156 372,-150 378,-144 384,-144 384,-144 466,-144 466,-144 472,-144 478,-150 478,-156 478,-156 478,-168 478,-168 478,-174 472,-180 466,-180"/>
<text text-anchor="middle" x="425" y="-165" font-family="sans" font-size="10.00">load_data_into_db</text>
<text text-anchor="middle" x="425" y="-154" font-family="sans" font-size="10.00">method: Prot</text>
</g>
<!-- 3&#45;&gt;12 -->
<g id="edge17" class="edge">
<title>3&#45;&gt;12</title>
<path fill="none" stroke="grey" stroke-width="2" d="M378.65,-215.34C385.28,-207.85 393.16,-198.95 400.53,-190.63"/>
<polygon fill="grey" stroke="grey" stroke-width="2" points="403.13,-192.71 407.14,-182.9 397.89,-188.07 403.13,-192.71"/>
</g>
<!-- 14 -->
<g id="node15" class="node">
<title>14</title>
<path fill="none" stroke="#56a2d8" stroke-width="2" d="M590,-180C590,-180 508,-180 508,-180 502,-180 496,-174 496,-168 496,-168 496,-156 496,-156 496,-150 502,-144 508,-144 508,-144 590,-144 590,-144 596,-144 602,-150 602,-156 602,-156 602,-168 602,-168 602,-174 596,-180 590,-180"/>
<text text-anchor="middle" x="549" y="-165" font-family="sans" font-size="10.00">load_data_into_db</text>
<text text-anchor="middle" x="549" y="-154" font-family="sans" font-size="10.00">method: SEC</text>
</g>
<!-- 3&#45;&gt;14 -->
<g id="edge19" class="edge">
<title>3&#45;&gt;14</title>
<path fill="none" stroke="grey" stroke-width="2" d="M410.42,-215.15C434.37,-206.14 463.69,-195.11 489.18,-185.51"/>
<polygon fill="grey" stroke="grey" stroke-width="2" points="491.22,-188.73 499.35,-181.93 488.75,-182.18 491.22,-188.73"/>
</g>
<!-- 16 -->
<g id="node17" class="node">
<title>16</title>
<path fill="none" stroke="#56a2d8" stroke-width="2" d="M714,-180C714,-180 632,-180 632,-180 626,-180 620,-174 620,-168 620,-168 620,-156 620,-156 620,-150 626,-144 632,-144 632,-144 714,-144 714,-144 720,-144 726,-150 726,-156 726,-156 726,-168 726,-168 726,-174 720,-180 714,-180"/>
<text text-anchor="middle" x="673" y="-165" font-family="sans" font-size="10.00">load_data_into_db</text>
<text text-anchor="middle" x="673" y="-154" font-family="sans" font-size="10.00">method: SUMO</text>
</g>
<!-- 3&#45;&gt;16 -->
<g id="edge21" class="edge">
<title>3&#45;&gt;16</title>
<path fill="none" stroke="grey" stroke-width="2" d="M453.11,-215.03C497.06,-205.97 550.96,-194.4 606.93,-180.93"/>
<polygon fill="grey" stroke="grey" stroke-width="2" points="608.39,-183.69 617.28,-177.93 606.74,-176.89 608.39,-183.69"/>
</g>
<!-- 4 -->
<g id="node5" class="node">
<title>4</title>
<path fill="none" stroke="#d85656" stroke-width="2" d="M389,-324C389,-324 337,-324 337,-324 331,-324 325,-318 325,-312 325,-312 325,-300 325,-300 325,-294 331,-288 337,-288 337,-288 389,-288 389,-288 395,-288 401,-294 401,-300 401,-300 401,-312 401,-312 401,-318 395,-324 389,-324"/>
<text text-anchor="middle" x="363" y="-303.5" font-family="sans" font-size="10.00">initialize_db</text>
</g>
<!-- 4&#45;&gt;3 -->
<g id="edge9" class="edge">
<title>4&#45;&gt;3</title>
<path fill="none" stroke="grey" stroke-width="2" d="M363,-287.34C363,-280.75 363,-273.08 363,-265.67"/>
<polygon fill="grey" stroke="grey" stroke-width="2" points="366.5,-265.9 363,-255.9 359.5,-265.9 366.5,-265.9"/>
</g>
<!-- 5 -->
<g id="node6" class="node">
<title>5</title>
<path fill="none" stroke="#d8a456" stroke-width="2" d="M401.5,-396C401.5,-396 324.5,-396 324.5,-396 318.5,-396 312.5,-390 312.5,-384 312.5,-384 312.5,-372 312.5,-372 312.5,-366 318.5,-360 324.5,-360 324.5,-360 401.5,-360 401.5,-360 407.5,-360 413.5,-366 413.5,-372 413.5,-372 413.5,-384 413.5,-384 413.5,-390 407.5,-396 401.5,-396"/>
<text text-anchor="middle" x="363" y="-375.5" font-family="sans" font-size="10.00">create_db_model</text>
</g>
<!-- 5&#45;&gt;4 -->
<g id="edge10" class="edge">
<title>5&#45;&gt;4</title>
<path fill="none" stroke="grey" stroke-width="2" d="M363,-359.34C363,-352.75 363,-345.08 363,-337.67"/>
<polygon fill="grey" stroke="grey" stroke-width="2" points="366.5,-337.9 363,-327.9 359.5,-337.9 366.5,-337.9"/>
</g>
<!-- 6 -->
<g id="node7" class="node">
<title>6</title>
<path fill="none" stroke="#78d856" stroke-width="2" d="M403,-468C403,-468 323,-468 323,-468 317,-468 311,-462 311,-456 311,-456 311,-444 311,-444 311,-438 317,-432 323,-432 323,-432 403,-432 403,-432 409,-432 415,-438 415,-444 415,-444 415,-456 415,-456 415,-462 409,-468 403,-468"/>
<text text-anchor="middle" x="363" y="-447.5" font-family="sans" font-size="10.00">extract_metadata</text>
</g>
<!-- 6&#45;&gt;5 -->
<g id="edge11" class="edge">
<title>6&#45;&gt;5</title>
<path fill="none" stroke="grey" stroke-width="2" d="M363,-431.34C363,-424.75 363,-417.08 363,-409.67"/>
<polygon fill="grey" stroke="grey" stroke-width="2" points="366.5,-409.9 363,-399.9 359.5,-409.9 366.5,-409.9"/>
</g>
<!-- 7 -->
<g id="node8" class="node">
<title>7</title>
<path fill="none" stroke="#56d87b" stroke-width="2" d="M240,-108C240,-108 202,-108 202,-108 196,-108 190,-102 190,-96 190,-96 190,-84 190,-84 190,-78 196,-72 202,-72 202,-72 240,-72 240,-72 246,-72 252,-78 252,-84 252,-84 252,-96 252,-96 252,-102 246,-108 240,-108"/>
<text text-anchor="middle" x="221" y="-87.5" font-family="sans" font-size="10.00">check_db</text>
</g>
<!-- 7&#45;&gt;0 -->
<g id="edge2" class="edge">
<title>7&#45;&gt;0</title>
<path fill="none" stroke="grey" stroke-width="2" d="M252.87,-73.29C273.8,-62.97 301.33,-49.4 323.63,-38.41"/>
<polygon fill="grey" stroke="grey" stroke-width="2" points="325.66,-41.32 333.08,-33.76 322.56,-35.05 325.66,-41.32"/>
</g>
<!-- 8&#45;&gt;7 -->
<g id="edge12" class="edge">
<title>8&#45;&gt;7</title>
<path fill="none" stroke="grey" stroke-width="2" d="M188.1,-143.34C192.6,-136.18 197.91,-127.73 202.94,-119.73"/>
<polygon fill="grey" stroke="grey" stroke-width="2" points="206.39,-121.23 208.75,-110.9 200.46,-117.51 206.39,-121.23"/>
</g>
<!-- 9 -->
<g id="node10" class="node">
<title>9</title>
<path fill="none" stroke="#56d87b" stroke-width="2" d="M342,-108C342,-108 304,-108 304,-108 298,-108 292,-102 292,-96 292,-96 292,-84 292,-84 292,-78 298,-72 304,-72 304,-72 342,-72 342,-72 348,-72 354,-78 354,-84 354,-84 354,-96 354,-96 354,-102 348,-108 342,-108"/>
<text text-anchor="middle" x="323" y="-87.5" font-family="sans" font-size="10.00">check_db</text>
</g>
<!-- 9&#45;&gt;0 -->
<g id="edge3" class="edge">
<title>9&#45;&gt;0</title>
<path fill="none" stroke="grey" stroke-width="2" d="M333.09,-71.34C337.14,-64.26 341.9,-55.92 346.43,-48"/>
<polygon fill="grey" stroke="grey" stroke-width="2" points="349.85,-49.32 351.77,-38.9 343.77,-45.85 349.85,-49.32"/>
</g>
<!-- 10&#45;&gt;9 -->
<g id="edge14" class="edge">
<title>10&#45;&gt;9</title>
<path fill="none" stroke="grey" stroke-width="2" d="M306.55,-143.34C308.67,-136.59 311.15,-128.69 313.54,-121.11"/>
<polygon fill="grey" stroke="grey" stroke-width="2" points="317.71,-121.49 317.37,-110.9 311.04,-119.39 317.71,-121.49"/>
</g>
<!-- 11 -->
<g id="node12" class="node">
<title>11</title>
<path fill="none" stroke="#56d87b" stroke-width="2" d="M433,-108C433,-108 395,-108 395,-108 389,-108 383,-102 383,-96 383,-96 383,-84 383,-84 383,-78 389,-72 395,-72 395,-72 433,-72 433,-72 439,-72 445,-78 445,-84 445,-84 445,-96 445,-96 445,-102 439,-108 433,-108"/>
<text text-anchor="middle" x="414" y="-87.5" font-family="sans" font-size="10.00">check_db</text>
</g>
<!-- 11&#45;&gt;0 -->
<g id="edge4" class="edge">
<title>11&#45;&gt;0</title>
<path fill="none" stroke="grey" stroke-width="2" d="M401.13,-71.34C395.8,-64.01 389.47,-55.34 383.53,-47.18"/>
<polygon fill="grey" stroke="grey" stroke-width="2" points="385.76,-44.92 377.04,-38.9 380.1,-49.05 385.76,-44.92"/>
</g>
<!-- 12&#45;&gt;11 -->
<g id="edge16" class="edge">
<title>12&#45;&gt;11</title>
<path fill="none" stroke="grey" stroke-width="2" d="M422.22,-143.34C421.19,-136.75 419.98,-129.08 418.82,-121.67"/>
<polygon fill="grey" stroke="grey" stroke-width="2" points="421.82,-120.24 416.81,-110.9 414.91,-121.32 421.82,-120.24"/>
</g>
<!-- 13 -->
<g id="node14" class="node">
<title>13</title>
<path fill="none" stroke="#56d87b" stroke-width="2" d="M540,-108C540,-108 502,-108 502,-108 496,-108 490,-102 490,-96 490,-96 490,-84 490,-84 490,-78 496,-72 502,-72 502,-72 540,-72 540,-72 546,-72 552,-78 552,-84 552,-84 552,-96 552,-96 552,-102 546,-108 540,-108"/>
<text text-anchor="middle" x="521" y="-87.5" font-family="sans" font-size="10.00">check_db</text>
</g>
<!-- 13&#45;&gt;0 -->
<g id="edge5" class="edge">
<title>13&#45;&gt;0</title>
<path fill="none" stroke="grey" stroke-width="2" d="M489.03,-74.83C464.08,-63.78 429.3,-48.37 402.6,-36.54"/>
<polygon fill="grey" stroke="grey" stroke-width="2" points="403.52,-33.24 392.96,-32.39 400.69,-39.64 403.52,-33.24"/>
</g>
<!-- 14&#45;&gt;13 -->
<g id="edge18" class="edge">
<title>14&#45;&gt;13</title>
<path fill="none" stroke="grey" stroke-width="2" d="M541.93,-143.34C539.2,-136.51 536,-128.5 532.93,-120.83"/>
<polygon fill="grey" stroke="grey" stroke-width="2" points="536.12,-118.89 529.16,-110.9 529.63,-121.49 536.12,-118.89"/>
</g>
<!-- 15 -->
<g id="node16" class="node">
<title>15</title>
<path fill="none" stroke="#56d87b" stroke-width="2" d="M656,-108C656,-108 618,-108 618,-108 612,-108 606,-102 606,-96 606,-96 606,-84 606,-84 606,-78 612,-72 618,-72 618,-72 656,-72 656,-72 662,-72 668,-78 668,-84 668,-84 668,-96 668,-96 668,-102 662,-108 656,-108"/>
<text text-anchor="middle" x="637" y="-87.5" font-family="sans" font-size="10.00">check_db</text>
</g>
<!-- 15&#45;&gt;0 -->
<g id="edge6" class="edge">
<title>15&#45;&gt;0</title>
<path fill="none" stroke="grey" stroke-width="2" d="M605.03,-80.83C554.85,-68.01 457.67,-43.19 402.95,-29.21"/>
<polygon fill="grey" stroke="grey" stroke-width="2" points="403.21,-25.15 392.65,-26.06 401.48,-31.93 403.21,-25.15"/>
</g>
<!-- 16&#45;&gt;15 -->
<g id="edge20" class="edge">
<title>16&#45;&gt;15</title>
<path fill="none" stroke="grey" stroke-width="2" d="M663.92,-143.34C660.32,-136.34 656.09,-128.12 652.06,-120.28"/>
<polygon fill="grey" stroke="grey" stroke-width="2" points="654.89,-118.19 647.21,-110.9 648.67,-121.4 654.89,-118.19"/>
</g>
</g>
</svg>
