<?xml version="1.0" encoding="UTF-8" standalone="no"?>
<!DOCTYPE svg PUBLIC "-//W3C//DTD SVG 1.1//EN"
 "http://www.w3.org/Graphics/SVG/1.1/DTD/svg11.dtd">
<!-- Generated by graphviz version 8.0.3 (20230418.1244)
 -->
<!-- Title: snakemake_dag Pages: 1 -->
<svg width="824pt" height="620pt"
 viewBox="0.00 0.00 824.00 620.00" xmlns="http://www.w3.org/2000/svg" xmlns:xlink="http://www.w3.org/1999/xlink">
<g id="graph0" class="graph" transform="scale(1 1) rotate(0) translate(4 616)">
<title>snakemake_dag</title>
<polygon fill="white" stroke="none" points="-4,4 -4,-616 820,-616 820,4 -4,4"/>
<!-- 0 -->
<g id="node1" class="node">
<title>0</title>
<path fill="none" stroke="#56c1d8" stroke-width="2" d="M422.5,-36C422.5,-36 392.5,-36 392.5,-36 386.5,-36 380.5,-30 380.5,-24 380.5,-24 380.5,-12 380.5,-12 380.5,-6 386.5,0 392.5,0 392.5,0 422.5,0 422.5,0 428.5,0 434.5,-6 434.5,-12 434.5,-12 434.5,-24 434.5,-24 434.5,-30 428.5,-36 422.5,-36"/>
<text text-anchor="middle" x="407.5" y="-15.5" font-family="sans" font-size="10.00">all</text>
</g>
<!-- 1 -->
<g id="node2" class="node">
<title>1</title>
<path fill="none" stroke="#d88d56" stroke-width="2" d="M465.5,-180C465.5,-180 349.5,-180 349.5,-180 343.5,-180 337.5,-174 337.5,-168 337.5,-168 337.5,-156 337.5,-156 337.5,-150 343.5,-144 349.5,-144 349.5,-144 465.5,-144 465.5,-144 471.5,-144 477.5,-150 477.5,-156 477.5,-156 477.5,-168 477.5,-168 477.5,-174 471.5,-180 465.5,-180"/>
<text text-anchor="middle" x="407.5" y="-159.5" font-family="sans" font-size="10.00">r8_1_get_experiment_list</text>
</g>
<!-- 1&#45;&gt;0 -->
<g id="edge1" class="edge">
<title>1&#45;&gt;0</title>
<path fill="none" stroke="grey" stroke-width="2" d="M386.65,-143.06C377.35,-133.68 367.41,-121.37 362.5,-108 356.98,-92.98 356.98,-87.02 362.5,-72 365.88,-62.81 371.63,-54.12 377.92,-46.54"/>
<polygon fill="grey" stroke="grey" stroke-width="2" points="380.51,-48.7 384.65,-38.94 375.33,-43.98 380.51,-48.7"/>
</g>
<!-- 13 -->
<g id="node14" class="node">
<title>13</title>
<path fill="none" stroke="#d85656" stroke-width="2" d="M559.5,-108C559.5,-108 383.5,-108 383.5,-108 377.5,-108 371.5,-102 371.5,-96 371.5,-96 371.5,-84 371.5,-84 371.5,-78 377.5,-72 383.5,-72 383.5,-72 559.5,-72 559.5,-72 565.5,-72 571.5,-78 571.5,-84 571.5,-84 571.5,-96 571.5,-96 571.5,-102 565.5,-108 559.5,-108"/>
<text text-anchor="middle" x="471.5" y="-87.5" font-family="sans" font-size="10.00">r8_2_generate_report_by_experiment</text>
</g>
<!-- 1&#45;&gt;13 -->
<g id="edge19" class="edge">
<title>1&#45;&gt;13</title>
<path fill="none" stroke="grey" stroke-width="2" d="M423.65,-143.34C430.57,-135.77 438.81,-126.75 446.49,-118.35"/>
<polygon fill="grey" stroke="grey" stroke-width="2" points="448.97,-120.64 453.13,-110.9 443.8,-115.92 448.97,-120.64"/>
</g>
<!-- 2 -->
<g id="node3" class="node">
<title>2</title>
<path fill="none" stroke="#56d88a" stroke-width="2" d="M434,-252C434,-252 381,-252 381,-252 375,-252 369,-246 369,-240 369,-240 369,-228 369,-228 369,-222 375,-216 381,-216 381,-216 434,-216 434,-216 440,-216 446,-222 446,-228 446,-228 446,-240 446,-240 446,-246 440,-252 434,-252"/>
<text text-anchor="middle" x="407.5" y="-231.5" font-family="sans" font-size="10.00">r6_check_db</text>
</g>
<!-- 2&#45;&gt;1 -->
<g id="edge3" class="edge">
<title>2&#45;&gt;1</title>
<path fill="none" stroke="grey" stroke-width="2" d="M407.5,-215.34C407.5,-208.75 407.5,-201.08 407.5,-193.67"/>
<polygon fill="grey" stroke="grey" stroke-width="2" points="411,-193.9 407.5,-183.9 404,-193.9 411,-193.9"/>
</g>
<!-- 3 -->
<g id="node4" class="node">
<title>3</title>
<path fill="none" stroke="#56d8c1" stroke-width="2" d="M109,-324C109,-324 12,-324 12,-324 6,-324 0,-318 0,-312 0,-312 0,-300 0,-300 0,-294 6,-288 12,-288 12,-288 109,-288 109,-288 115,-288 121,-294 121,-300 121,-300 121,-312 121,-312 121,-318 115,-324 109,-324"/>
<text text-anchor="middle" x="60.5" y="-309" font-family="sans" font-size="10.00">r5_load_data_into_db</text>
<text text-anchor="middle" x="60.5" y="-298" font-family="sans" font-size="10.00">method: IEX</text>
</g>
<!-- 3&#45;&gt;2 -->
<g id="edge4" class="edge">
<title>3&#45;&gt;2</title>
<path fill="none" stroke="grey" stroke-width="2" d="M121.78,-289.72C124.39,-289.13 126.97,-288.55 129.5,-288 207.94,-270.87 299.5,-254.02 355.48,-244.06"/>
<polygon fill="grey" stroke="grey" stroke-width="2" points="357,-247 366.23,-241.81 355.78,-240.1 357,-247"/>
</g>
<!-- 4 -->
<g id="node5" class="node">
<title>4</title>
<path fill="none" stroke="#88d856" stroke-width="2" d="M492.5,-396C492.5,-396 322.5,-396 322.5,-396 316.5,-396 310.5,-390 310.5,-384 310.5,-384 310.5,-372 310.5,-372 310.5,-366 316.5,-360 322.5,-360 322.5,-360 492.5,-360 492.5,-360 498.5,-360 504.5,-366 504.5,-372 504.5,-372 504.5,-384 504.5,-384 504.5,-390 498.5,-396 492.5,-396"/>
<text text-anchor="middle" x="407.5" y="-375.5" font-family="sans" font-size="10.00">r4_read_and_split_purification_excel</text>
</g>
<!-- 4&#45;&gt;3 -->
<g id="edge10" class="edge">
<title>4&#45;&gt;3</title>
<path fill="none" stroke="grey" stroke-width="2" d="M309.78,-359.68C259.72,-350.5 197.49,-338.62 134.41,-325.02"/>
<polygon fill="grey" stroke="grey" stroke-width="2" points="134.3,-320.98 123.78,-322.28 132.81,-327.82 134.3,-320.98"/>
</g>
<!-- 8 -->
<g id="node9" class="node">
<title>8</title>
<path fill="none" stroke="#56d8c1" stroke-width="2" d="M248,-324C248,-324 151,-324 151,-324 145,-324 139,-318 139,-312 139,-312 139,-300 139,-300 139,-294 145,-288 151,-288 151,-288 248,-288 248,-288 254,-288 260,-294 260,-300 260,-300 260,-312 260,-312 260,-318 254,-324 248,-324"/>
<text text-anchor="middle" x="199.5" y="-309" font-family="sans" font-size="10.00">r5_load_data_into_db</text>
<text text-anchor="middle" x="199.5" y="-298" font-family="sans" font-size="10.00">method: IMAC</text>
</g>
<!-- 4&#45;&gt;8 -->
<g id="edge14" class="edge">
<title>4&#45;&gt;8</title>
<path fill="none" stroke="grey" stroke-width="2" d="M354.2,-359.06C326.93,-349.88 293.49,-338.63 264.68,-328.94"/>
<polygon fill="grey" stroke="grey" stroke-width="2" points="265.25,-324.76 254.66,-324.89 263.02,-331.4 265.25,-324.76"/>
</g>
<!-- 9 -->
<g id="node10" class="node">
<title>9</title>
<path fill="none" stroke="#56d8c1" stroke-width="2" d="M387,-324C387,-324 290,-324 290,-324 284,-324 278,-318 278,-312 278,-312 278,-300 278,-300 278,-294 284,-288 290,-288 290,-288 387,-288 387,-288 393,-288 399,-294 399,-300 399,-300 399,-312 399,-312 399,-318 393,-324 387,-324"/>
<text text-anchor="middle" x="338.5" y="-309" font-family="sans" font-size="10.00">r5_load_data_into_db</text>
<text text-anchor="middle" x="338.5" y="-298" font-family="sans" font-size="10.00">method: Induction</text>
</g>
<!-- 4&#45;&gt;9 -->
<g id="edge15" class="edge">
<title>4&#45;&gt;9</title>
<path fill="none" stroke="grey" stroke-width="2" d="M390.09,-359.34C382.55,-351.69 373.55,-342.56 365.19,-334.08"/>
<polygon fill="grey" stroke="grey" stroke-width="2" points="367.66,-331.57 358.15,-326.9 362.67,-336.48 367.66,-331.57"/>
</g>
<!-- 10 -->
<g id="node11" class="node">
<title>10</title>
<path fill="none" stroke="#56d8c1" stroke-width="2" d="M526,-324C526,-324 429,-324 429,-324 423,-324 417,-318 417,-312 417,-312 417,-300 417,-300 417,-294 423,-288 429,-288 429,-288 526,-288 526,-288 532,-288 538,-294 538,-300 538,-300 538,-312 538,-312 538,-318 532,-324 526,-324"/>
<text text-anchor="middle" x="477.5" y="-309" font-family="sans" font-size="10.00">r5_load_data_into_db</text>
<text text-anchor="middle" x="477.5" y="-298" font-family="sans" font-size="10.00">method: Prot</text>
</g>
<!-- 4&#45;&gt;10 -->
<g id="edge16" class="edge">
<title>4&#45;&gt;10</title>
<path fill="none" stroke="grey" stroke-width="2" d="M425.16,-359.34C432.81,-351.69 441.94,-342.56 450.42,-334.08"/>
<polygon fill="grey" stroke="grey" stroke-width="2" points="453,-336.45 457.6,-326.9 448.05,-331.5 453,-336.45"/>
</g>
<!-- 11 -->
<g id="node12" class="node">
<title>11</title>
<path fill="none" stroke="#56d8c1" stroke-width="2" d="M665,-324C665,-324 568,-324 568,-324 562,-324 556,-318 556,-312 556,-312 556,-300 556,-300 556,-294 562,-288 568,-288 568,-288 665,-288 665,-288 671,-288 677,-294 677,-300 677,-300 677,-312 677,-312 677,-318 671,-324 665,-324"/>
<text text-anchor="middle" x="616.5" y="-309" font-family="sans" font-size="10.00">r5_load_data_into_db</text>
<text text-anchor="middle" x="616.5" y="-298" font-family="sans" font-size="10.00">method: SEC</text>
</g>
<!-- 4&#45;&gt;11 -->
<g id="edge17" class="edge">
<title>4&#45;&gt;11</title>
<path fill="none" stroke="grey" stroke-width="2" d="M461.05,-359.06C488.46,-349.88 522.06,-338.63 551,-328.94"/>
<polygon fill="grey" stroke="grey" stroke-width="2" points="552.72,-331.38 561.09,-324.89 550.49,-324.75 552.72,-331.38"/>
</g>
<!-- 12 -->
<g id="node13" class="node">
<title>12</title>
<path fill="none" stroke="#56d8c1" stroke-width="2" d="M804,-324C804,-324 707,-324 707,-324 701,-324 695,-318 695,-312 695,-312 695,-300 695,-300 695,-294 701,-288 707,-288 707,-288 804,-288 804,-288 810,-288 816,-294 816,-300 816,-300 816,-312 816,-312 816,-318 810,-324 804,-324"/>
<text text-anchor="middle" x="755.5" y="-309" font-family="sans" font-size="10.00">r5_load_data_into_db</text>
<text text-anchor="middle" x="755.5" y="-298" font-family="sans" font-size="10.00">method: SUMO</text>
</g>
<!-- 4&#45;&gt;12 -->
<g id="edge18" class="edge">
<title>4&#45;&gt;12</title>
<path fill="none" stroke="grey" stroke-width="2" d="M505.25,-359.76C555.54,-350.58 618.13,-338.67 681.53,-325.03"/>
<polygon fill="grey" stroke="grey" stroke-width="2" points="683.19,-327.82 692.22,-322.28 681.7,-320.98 683.19,-327.82"/>
</g>
<!-- 5 -->
<g id="node6" class="node">
<title>5</title>
<path fill="none" stroke="#d8bc56" stroke-width="2" d="M441,-468C441,-468 374,-468 374,-468 368,-468 362,-462 362,-456 362,-456 362,-444 362,-444 362,-438 368,-432 374,-432 374,-432 441,-432 441,-432 447,-432 453,-438 453,-444 453,-444 453,-456 453,-456 453,-462 447,-468 441,-468"/>
<text text-anchor="middle" x="407.5" y="-447.5" font-family="sans" font-size="10.00">r3_initialize_db</text>
</g>
<!-- 5&#45;&gt;4 -->
<g id="edge11" class="edge">
<title>5&#45;&gt;4</title>
<path fill="none" stroke="grey" stroke-width="2" d="M407.5,-431.34C407.5,-424.75 407.5,-417.08 407.5,-409.67"/>
<polygon fill="grey" stroke="grey" stroke-width="2" points="411,-409.9 407.5,-399.9 404,-409.9 411,-409.9"/>
</g>
<!-- 6 -->
<g id="node7" class="node">
<title>6</title>
<path fill="none" stroke="#59d856" stroke-width="2" d="M453.5,-540C453.5,-540 361.5,-540 361.5,-540 355.5,-540 349.5,-534 349.5,-528 349.5,-528 349.5,-516 349.5,-516 349.5,-510 355.5,-504 361.5,-504 361.5,-504 453.5,-504 453.5,-504 459.5,-504 465.5,-510 465.5,-516 465.5,-516 465.5,-528 465.5,-528 465.5,-534 459.5,-540 453.5,-540"/>
<text text-anchor="middle" x="407.5" y="-519.5" font-family="sans" font-size="10.00">r2_create_db_model</text>
</g>
<!-- 6&#45;&gt;5 -->
<g id="edge12" class="edge">
<title>6&#45;&gt;5</title>
<path fill="none" stroke="grey" stroke-width="2" d="M407.5,-503.34C407.5,-496.75 407.5,-489.08 407.5,-481.67"/>
<polygon fill="grey" stroke="grey" stroke-width="2" points="411,-481.9 407.5,-471.9 404,-481.9 411,-481.9"/>
</g>
<!-- 7 -->
<g id="node8" class="node">
<title>7</title>
<path fill="none" stroke="#568ad8" stroke-width="2" d="M455,-612C455,-612 360,-612 360,-612 354,-612 348,-606 348,-600 348,-600 348,-588 348,-588 348,-582 354,-576 360,-576 360,-576 455,-576 455,-576 461,-576 467,-582 467,-588 467,-588 467,-600 467,-600 467,-606 461,-612 455,-612"/>
<text text-anchor="middle" x="407.5" y="-591.5" font-family="sans" font-size="10.00">r1_extract_metadata</text>
</g>
<!-- 7&#45;&gt;6 -->
<g id="edge13" class="edge">
<title>7&#45;&gt;6</title>
<path fill="none" stroke="grey" stroke-width="2" d="M407.5,-575.34C407.5,-568.75 407.5,-561.08 407.5,-553.67"/>
<polygon fill="grey" stroke="grey" stroke-width="2" points="411,-553.9 407.5,-543.9 404,-553.9 411,-553.9"/>
</g>
<!-- 8&#45;&gt;2 -->
<g id="edge5" class="edge">
<title>8&#45;&gt;2</title>
<path fill="none" stroke="grey" stroke-width="2" d="M252.8,-287.06C284.57,-276.37 324.7,-262.87 356.12,-252.29"/>
<polygon fill="grey" stroke="grey" stroke-width="2" points="357.78,-254.75 366.14,-248.25 355.55,-248.12 357.78,-254.75"/>
</g>
<!-- 9&#45;&gt;2 -->
<g id="edge6" class="edge">
<title>9&#45;&gt;2</title>
<path fill="none" stroke="grey" stroke-width="2" d="M355.91,-287.34C363.45,-279.69 372.45,-270.56 380.81,-262.08"/>
<polygon fill="grey" stroke="grey" stroke-width="2" points="383.33,-264.48 387.85,-254.9 378.34,-259.57 383.33,-264.48"/>
</g>
<!-- 10&#45;&gt;2 -->
<g id="edge7" class="edge">
<title>10&#45;&gt;2</title>
<path fill="none" stroke="grey" stroke-width="2" d="M459.84,-287.34C452.19,-279.69 443.06,-270.56 434.58,-262.08"/>
<polygon fill="grey" stroke="grey" stroke-width="2" points="436.95,-259.5 427.4,-254.9 432,-264.45 436.95,-259.5"/>
</g>
<!-- 11&#45;&gt;2 -->
<g id="edge8" class="edge">
<title>11&#45;&gt;2</title>
<path fill="none" stroke="grey" stroke-width="2" d="M562.95,-287.06C530.92,-276.34 490.43,-262.78 458.81,-252.18"/>
<polygon fill="grey" stroke="grey" stroke-width="2" points="459.32,-247.99 448.72,-248.14 457.09,-254.63 459.32,-247.99"/>
</g>
<!-- 12&#45;&gt;2 -->
<g id="edge9" class="edge">
<title>12&#45;&gt;2</title>
<path fill="none" stroke="grey" stroke-width="2" d="M694.22,-289.72C691.61,-289.13 689.03,-288.55 686.5,-288 607.79,-270.84 515.89,-253.99 459.71,-244.05"/>
<polygon fill="grey" stroke="grey" stroke-width="2" points="459.36,-240.08 448.91,-241.8 458.15,-246.98 459.36,-240.08"/>
</g>
<!-- 13&#45;&gt;0 -->
<g id="edge2" class="edge">
<title>13&#45;&gt;0</title>
<path fill="none" stroke="grey" stroke-width="2" d="M455.35,-71.34C448.43,-63.77 440.19,-54.75 432.51,-46.35"/>
<polygon fill="grey" stroke="grey" stroke-width="2" points="435.2,-43.92 425.87,-38.9 430.03,-48.64 435.2,-43.92"/>
</g>
</g>
</svg>
